<mxfile host="Electron" modified="2021-08-30T19:39:12.538Z" agent="5.0 (X11; Linux x86_64) AppleWebKit/537.36 (KHTML, like Gecko) draw.io/14.6.13 Chrome/89.0.4389.128 Electron/12.0.7 Safari/537.36" etag="5SG03JPL4Wtg6IO0MZoI" compressed="false" version="14.6.13" type="device">
  <diagram id="3tjhLltY2x7DQcHckQQb" name="Page-1">
    <mxGraphModel dx="1422" dy="859" grid="1" gridSize="10" guides="1" tooltips="1" connect="1" arrows="1" fold="1" page="1" pageScale="1" pageWidth="827" pageHeight="1169" math="0" shadow="0">
      <root>
        <mxCell id="0" />
        <mxCell id="1" parent="0" />
        <mxCell id="9A0QF4XERvp_Jt2evsWX-31" value="&amp;nbsp;Inputs" style="rounded=0;whiteSpace=wrap;html=1;strokeWidth=1;fillColor=#ffffff;align=left;horizontal=1;verticalAlign=top;fontStyle=1" parent="1" vertex="1">
          <mxGeometry x="310" width="420" height="260" as="geometry" />
        </mxCell>
        <mxCell id="lfObksuT2YyBjcTdg7as-6" value="&amp;nbsp;From OntoFlow" style="rounded=0;whiteSpace=wrap;html=1;align=left;fontStyle=1;verticalAlign=top;" vertex="1" parent="1">
          <mxGeometry x="572.5" y="30" width="137" height="90" as="geometry" />
        </mxCell>
        <mxCell id="lfObksuT2YyBjcTdg7as-5" value="&amp;nbsp;From User" style="rounded=0;whiteSpace=wrap;html=1;align=left;fontStyle=1;verticalAlign=top;" vertex="1" parent="1">
          <mxGeometry x="333" y="30" width="137" height="210" as="geometry" />
        </mxCell>
        <mxCell id="4fU-IoyfEtTxK25tFhFx-13" value="&amp;nbsp;Workflow" style="rounded=0;whiteSpace=wrap;html=1;fillColor=#f9f7ed;strokeColor=#36393d;verticalAlign=top;align=left;fontStyle=1" parent="1" vertex="1">
          <mxGeometry x="310" y="300" width="420" height="350" as="geometry" />
        </mxCell>
        <mxCell id="4fU-IoyfEtTxK25tFhFx-2" value="Chowlk&lt;br&gt;Diagrams" style="shape=hexagon;perimeter=hexagonPerimeter2;whiteSpace=wrap;html=1;fixedSize=1;" parent="1" vertex="1">
          <mxGeometry x="350" y="120" width="100" height="40" as="geometry" />
        </mxCell>
        <mxCell id="4fU-IoyfEtTxK25tFhFx-3" value="SHACL&amp;nbsp;&lt;br&gt;Shapes" style="shape=hexagon;perimeter=hexagonPerimeter2;whiteSpace=wrap;html=1;fixedSize=1;" parent="1" vertex="1">
          <mxGeometry x="350" y="60" width="100" height="40" as="geometry" />
        </mxCell>
        <mxCell id="4fU-IoyfEtTxK25tFhFx-4" value="Convert to OWL" style="rounded=1;whiteSpace=wrap;html=1;fillColor=#ffcc99;strokeColor=#36393d;" parent="1" vertex="1">
          <mxGeometry x="481.25" y="320" width="80" height="40" as="geometry" />
        </mxCell>
        <mxCell id="4fU-IoyfEtTxK25tFhFx-5" value="Document&lt;br&gt;Ontology" style="rounded=1;whiteSpace=wrap;html=1;fillColor=#ffcc99;strokeColor=#36393d;" parent="1" vertex="1">
          <mxGeometry x="333" y="490" width="80" height="40" as="geometry" />
        </mxCell>
        <mxCell id="4fU-IoyfEtTxK25tFhFx-6" value="Validate&lt;br&gt;Ontology" style="rounded=1;whiteSpace=wrap;html=1;fillColor=#ffcc99;strokeColor=#36393d;" parent="1" vertex="1">
          <mxGeometry x="629.5" y="490" width="80" height="40" as="geometry" />
        </mxCell>
        <mxCell id="4fU-IoyfEtTxK25tFhFx-8" value="Serialize&amp;nbsp;&lt;br&gt;to RDF" style="rounded=1;whiteSpace=wrap;html=1;fillColor=#ffcc99;strokeColor=#36393d;" parent="1" vertex="1">
          <mxGeometry x="429.5" y="490" width="80" height="40" as="geometry" />
        </mxCell>
        <mxCell id="4fU-IoyfEtTxK25tFhFx-10" value="Versioning" style="rounded=1;whiteSpace=wrap;html=1;strokeColor=#36393d;fillColor=#ffcc99;" parent="1" vertex="1">
          <mxGeometry x="529.5" y="490" width="80" height="40" as="geometry" />
        </mxCell>
        <mxCell id="4fU-IoyfEtTxK25tFhFx-11" value="Diff Detection" style="rounded=1;whiteSpace=wrap;html=1;fillColor=#ffcc99;strokeColor=#36393d;" parent="1" vertex="1">
          <mxGeometry x="529.5" y="560" width="80" height="40" as="geometry" />
        </mxCell>
        <mxCell id="4fU-IoyfEtTxK25tFhFx-32" value="" style="endArrow=open;html=1;exitX=0.5;exitY=1;exitDx=0;exitDy=0;entryX=0.5;entryY=0;entryDx=0;entryDy=0;strokeWidth=2;endFill=0;" parent="1" source="4fU-IoyfEtTxK25tFhFx-4" target="4fU-IoyfEtTxK25tFhFx-9" edge="1">
          <mxGeometry width="50" height="50" relative="1" as="geometry">
            <mxPoint x="479" y="280" as="sourcePoint" />
            <mxPoint x="479" y="310" as="targetPoint" />
          </mxGeometry>
        </mxCell>
        <mxCell id="9A0QF4XERvp_Jt2evsWX-11" value="" style="endArrow=open;html=1;exitX=0.5;exitY=1;exitDx=0;exitDy=0;entryX=0.5;entryY=0;entryDx=0;entryDy=0;strokeWidth=2;endFill=0;rounded=0;" parent="1" source="4fU-IoyfEtTxK25tFhFx-9" edge="1">
          <mxGeometry width="50" height="50" relative="1" as="geometry">
            <mxPoint x="551.25" y="390" as="sourcePoint" />
            <mxPoint x="569.5" y="490" as="targetPoint" />
            <Array as="points">
              <mxPoint x="521" y="460" />
              <mxPoint x="570" y="460" />
            </Array>
          </mxGeometry>
        </mxCell>
        <mxCell id="9A0QF4XERvp_Jt2evsWX-12" value="" style="endArrow=open;html=1;exitX=0.5;exitY=1;exitDx=0;exitDy=0;strokeWidth=2;endFill=0;entryX=0.25;entryY=0;entryDx=0;entryDy=0;rounded=0;" parent="1" source="4fU-IoyfEtTxK25tFhFx-9" target="4fU-IoyfEtTxK25tFhFx-6" edge="1">
          <mxGeometry width="50" height="50" relative="1" as="geometry">
            <mxPoint x="561.25" y="400" as="sourcePoint" />
            <mxPoint x="670" y="470" as="targetPoint" />
            <Array as="points">
              <mxPoint x="521" y="460" />
              <mxPoint x="650" y="460" />
            </Array>
          </mxGeometry>
        </mxCell>
        <mxCell id="4fU-IoyfEtTxK25tFhFx-9" value="Merge Ontology Files" style="rounded=1;whiteSpace=wrap;html=1;fillColor=#ffcc99;strokeColor=#36393d;" parent="1" vertex="1">
          <mxGeometry x="481.25" y="390" width="80" height="40" as="geometry" />
        </mxCell>
        <mxCell id="9A0QF4XERvp_Jt2evsWX-14" value="" style="endArrow=open;html=1;strokeWidth=2;endFill=0;entryX=0.5;entryY=0;entryDx=0;entryDy=0;exitX=0.5;exitY=1;exitDx=0;exitDy=0;rounded=0;" parent="1" source="4fU-IoyfEtTxK25tFhFx-9" target="4fU-IoyfEtTxK25tFhFx-5" edge="1">
          <mxGeometry width="50" height="50" relative="1" as="geometry">
            <mxPoint x="521.25" y="430" as="sourcePoint" />
            <mxPoint x="373" y="490" as="targetPoint" />
            <Array as="points">
              <mxPoint x="521" y="460" />
              <mxPoint x="373" y="460" />
            </Array>
          </mxGeometry>
        </mxCell>
        <mxCell id="9A0QF4XERvp_Jt2evsWX-17" value="" style="endArrow=open;html=1;exitX=0.5;exitY=1;exitDx=0;exitDy=0;strokeWidth=2;endFill=0;entryX=0.5;entryY=0;entryDx=0;entryDy=0;rounded=0;" parent="1" source="4fU-IoyfEtTxK25tFhFx-9" target="4fU-IoyfEtTxK25tFhFx-8" edge="1">
          <mxGeometry width="50" height="50" relative="1" as="geometry">
            <mxPoint x="521.25" y="430" as="sourcePoint" />
            <mxPoint x="469.5" y="490" as="targetPoint" />
            <Array as="points">
              <mxPoint x="521" y="460" />
              <mxPoint x="470" y="460" />
            </Array>
          </mxGeometry>
        </mxCell>
        <mxCell id="9A0QF4XERvp_Jt2evsWX-21" value="" style="endArrow=open;html=1;exitX=0.5;exitY=1;exitDx=0;exitDy=0;entryX=0.5;entryY=0;entryDx=0;entryDy=0;strokeWidth=2;endFill=0;" parent="1" source="4fU-IoyfEtTxK25tFhFx-10" target="4fU-IoyfEtTxK25tFhFx-11" edge="1">
          <mxGeometry width="50" height="50" relative="1" as="geometry">
            <mxPoint x="531.25" y="370" as="sourcePoint" />
            <mxPoint x="531.25" y="400" as="targetPoint" />
          </mxGeometry>
        </mxCell>
        <mxCell id="9A0QF4XERvp_Jt2evsWX-23" value="" style="endArrow=none;html=1;strokeWidth=2;endFill=0;rounded=0;exitX=0.5;exitY=1;exitDx=0;exitDy=0;" parent="1" source="4fU-IoyfEtTxK25tFhFx-8" edge="1">
          <mxGeometry width="50" height="50" relative="1" as="geometry">
            <mxPoint x="383" y="540" as="sourcePoint" />
            <mxPoint x="520" y="630" as="targetPoint" />
            <Array as="points">
              <mxPoint x="470" y="630" />
              <mxPoint x="520" y="630" />
            </Array>
          </mxGeometry>
        </mxCell>
        <mxCell id="9A0QF4XERvp_Jt2evsWX-24" value="" style="endArrow=none;html=1;strokeWidth=2;endFill=0;rounded=0;exitX=0.5;exitY=1;exitDx=0;exitDy=0;" parent="1" source="4fU-IoyfEtTxK25tFhFx-11" edge="1">
          <mxGeometry width="50" height="50" relative="1" as="geometry">
            <mxPoint x="479.5" y="540" as="sourcePoint" />
            <mxPoint x="520" y="630" as="targetPoint" />
            <Array as="points">
              <mxPoint x="570" y="630" />
              <mxPoint x="520" y="630" />
            </Array>
          </mxGeometry>
        </mxCell>
        <mxCell id="9A0QF4XERvp_Jt2evsWX-25" value="" style="endArrow=none;html=1;strokeWidth=2;endFill=0;rounded=0;exitX=0.5;exitY=1;exitDx=0;exitDy=0;" parent="1" source="4fU-IoyfEtTxK25tFhFx-6" edge="1">
          <mxGeometry width="50" height="50" relative="1" as="geometry">
            <mxPoint x="579.5" y="610" as="sourcePoint" />
            <mxPoint x="520" y="630" as="targetPoint" />
            <Array as="points">
              <mxPoint x="670" y="630" />
              <mxPoint x="520" y="630" />
            </Array>
          </mxGeometry>
        </mxCell>
        <mxCell id="9A0QF4XERvp_Jt2evsWX-26" value="" style="endArrow=open;html=1;exitX=1;exitY=0.5;exitDx=0;exitDy=0;entryX=0.5;entryY=0;entryDx=0;entryDy=0;strokeWidth=2;endFill=0;rounded=0;" parent="1" source="4fU-IoyfEtTxK25tFhFx-2" target="4fU-IoyfEtTxK25tFhFx-4" edge="1">
          <mxGeometry width="50" height="50" relative="1" as="geometry">
            <mxPoint x="531.25" y="350" as="sourcePoint" />
            <mxPoint x="531.25" y="380" as="targetPoint" />
            <Array as="points">
              <mxPoint x="521" y="140" />
            </Array>
          </mxGeometry>
        </mxCell>
        <mxCell id="9A0QF4XERvp_Jt2evsWX-28" value="" style="endArrow=open;html=1;exitX=1;exitY=0.5;exitDx=0;exitDy=0;entryX=0.5;entryY=0;entryDx=0;entryDy=0;strokeWidth=2;endFill=0;rounded=0;" parent="1" source="4fU-IoyfEtTxK25tFhFx-3" target="4fU-IoyfEtTxK25tFhFx-6" edge="1">
          <mxGeometry width="50" height="50" relative="1" as="geometry">
            <mxPoint x="640" y="260" as="sourcePoint" />
            <mxPoint x="561.25" y="390" as="targetPoint" />
            <Array as="points">
              <mxPoint x="550" y="80" />
              <mxPoint x="550" y="240" />
              <mxPoint x="670" y="240" />
            </Array>
          </mxGeometry>
        </mxCell>
        <mxCell id="9A0QF4XERvp_Jt2evsWX-30" value="" style="endArrow=open;html=1;strokeWidth=2;endFill=0;rounded=0;entryX=0;entryY=0.5;entryDx=0;entryDy=0;exitX=0.5;exitY=1;exitDx=0;exitDy=0;" parent="1" source="lfObksuT2YyBjcTdg7as-2" target="4fU-IoyfEtTxK25tFhFx-9" edge="1">
          <mxGeometry width="50" height="50" relative="1" as="geometry">
            <mxPoint x="399.5588235294117" y="240" as="sourcePoint" />
            <mxPoint x="470" y="390" as="targetPoint" />
            <Array as="points">
              <mxPoint x="400" y="410" />
            </Array>
          </mxGeometry>
        </mxCell>
        <mxCell id="lfObksuT2YyBjcTdg7as-2" value="OWL Files" style="shape=hexagon;perimeter=hexagonPerimeter2;whiteSpace=wrap;html=1;fixedSize=1;" vertex="1" parent="1">
          <mxGeometry x="350" y="180" width="100" height="40" as="geometry" />
        </mxCell>
        <mxCell id="lfObksuT2YyBjcTdg7as-4" value="SHACL&amp;nbsp;&lt;br&gt;Shapes" style="shape=hexagon;perimeter=hexagonPerimeter2;whiteSpace=wrap;html=1;fixedSize=1;" vertex="1" parent="1">
          <mxGeometry x="591" y="60" width="100" height="40" as="geometry" />
        </mxCell>
        <mxCell id="lfObksuT2YyBjcTdg7as-8" value="" style="endArrow=open;html=1;exitX=0.5;exitY=1;exitDx=0;exitDy=0;strokeWidth=2;endFill=0;rounded=0;entryX=0.75;entryY=0;entryDx=0;entryDy=0;" edge="1" parent="1" source="lfObksuT2YyBjcTdg7as-4" target="4fU-IoyfEtTxK25tFhFx-6">
          <mxGeometry width="50" height="50" relative="1" as="geometry">
            <mxPoint x="460" y="150" as="sourcePoint" />
            <mxPoint x="531.25" y="310" as="targetPoint" />
            <Array as="points">
              <mxPoint x="641" y="140" />
              <mxPoint x="690" y="140" />
            </Array>
          </mxGeometry>
        </mxCell>
        <mxCell id="lfObksuT2YyBjcTdg7as-9" value="&amp;nbsp;Outputs" style="rounded=0;whiteSpace=wrap;html=1;strokeWidth=1;fillColor=#ffffff;align=left;horizontal=1;verticalAlign=top;fontStyle=1" vertex="1" parent="1">
          <mxGeometry x="310" y="690" width="420" height="230" as="geometry" />
        </mxCell>
        <mxCell id="4fU-IoyfEtTxK25tFhFx-15" value="&amp;nbsp;Ontology Artifact Package" style="shape=cube;whiteSpace=wrap;html=1;boundedLbl=1;backgroundOutline=1;darkOpacity=0.05;darkOpacity2=0.1;size=10;verticalAlign=top;align=left;fontStyle=1" parent="1" vertex="1">
          <mxGeometry x="410" y="710" width="220" height="190" as="geometry" />
        </mxCell>
        <mxCell id="9A0QF4XERvp_Jt2evsWX-5" value="" style="group" parent="1" vertex="1" connectable="0">
          <mxGeometry x="464" y="750" width="145" height="115" as="geometry" />
        </mxCell>
        <mxCell id="4fU-IoyfEtTxK25tFhFx-19" value="RDF Serializiations" style="shape=image;html=1;verticalAlign=top;verticalLabelPosition=bottom;labelBackgroundColor=#ffffff;imageAspect=0;aspect=fixed;image=https://cdn2.iconfinder.com/data/icons/picol-vector/32/rdf_document-128.png" parent="9A0QF4XERvp_Jt2evsWX-5" vertex="1">
          <mxGeometry y="5" width="40" height="40" as="geometry" />
        </mxCell>
        <mxCell id="4fU-IoyfEtTxK25tFhFx-18" value="Documentation" style="shape=image;html=1;verticalAlign=top;verticalLabelPosition=bottom;labelBackgroundColor=#ffffff;imageAspect=0;aspect=fixed;image=https://cdn4.iconfinder.com/data/icons/documents-42/512/document_file_paper_page-31-128.png;spacingBottom=0;align=center;spacingLeft=0;spacing=-3;" parent="9A0QF4XERvp_Jt2evsWX-5" vertex="1">
          <mxGeometry x="95" width="50" height="50" as="geometry" />
        </mxCell>
        <mxCell id="9A0QF4XERvp_Jt2evsWX-3" value="Validation Reports&lt;br&gt;" style="shape=image;html=1;verticalAlign=top;verticalLabelPosition=bottom;labelBackgroundColor=#ffffff;imageAspect=0;aspect=fixed;image=https://cdn2.iconfinder.com/data/icons/picol-vector/32/rdf_document-128.png" parent="9A0QF4XERvp_Jt2evsWX-5" vertex="1">
          <mxGeometry y="75" width="40" height="40" as="geometry" />
        </mxCell>
        <mxCell id="9A0QF4XERvp_Jt2evsWX-4" value="Semantic Diff" style="shape=image;html=1;verticalAlign=top;verticalLabelPosition=bottom;labelBackgroundColor=#ffffff;imageAspect=0;aspect=fixed;image=https://cdn2.iconfinder.com/data/icons/picol-vector/32/rdf_document-128.png" parent="9A0QF4XERvp_Jt2evsWX-5" vertex="1">
          <mxGeometry x="100" y="75" width="40" height="40" as="geometry" />
        </mxCell>
        <mxCell id="9A0QF4XERvp_Jt2evsWX-22" value="" style="endArrow=open;html=1;strokeWidth=2;endFill=0;exitX=0.5;exitY=1;exitDx=0;exitDy=0;rounded=0;" parent="1" source="4fU-IoyfEtTxK25tFhFx-5" target="4fU-IoyfEtTxK25tFhFx-15" edge="1">
          <mxGeometry width="50" height="50" relative="1" as="geometry">
            <mxPoint x="487.25" y="575" as="sourcePoint" />
            <mxPoint x="520" y="700" as="targetPoint" />
            <Array as="points">
              <mxPoint x="373" y="630" />
              <mxPoint x="520" y="630" />
            </Array>
          </mxGeometry>
        </mxCell>
      </root>
    </mxGraphModel>
  </diagram>
</mxfile>
